<mxfile host="app.diagrams.net" modified="2022-11-15T03:59:38.714Z" agent="5.0 (Windows NT 10.0; Win64; x64) AppleWebKit/537.36 (KHTML, like Gecko) Chrome/107.0.0.0 Safari/537.36" etag="ldcXnWXJqAv61aM1n9ZR" version="20.5.3" type="github">
  <diagram id="aS9pjdUC0Do7hMSleVWt" name="第 1 页">
    <mxGraphModel dx="1422" dy="762" grid="0" gridSize="10" guides="1" tooltips="1" connect="1" arrows="1" fold="1" page="1" pageScale="1" pageWidth="1654" pageHeight="1169" background="none" math="0" shadow="0">
      <root>
        <mxCell id="0" />
        <mxCell id="1" parent="0" />
        <mxCell id="eDFqkNTLr4-eCkODvhOK-7" value="AbstractAutoProxyCreator" style="swimlane;fontStyle=0;childLayout=stackLayout;horizontal=1;startSize=26;fillColor=#CCFFFF;horizontalStack=0;resizeParent=1;resizeParentMax=0;resizeLast=0;collapsible=1;marginBottom=0;direction=east;strokeColor=default;swimlaneLine=1;glass=0;rounded=0;shadow=0;" parent="1" vertex="1" collapsed="1">
          <mxGeometry x="669" y="361" width="170" height="30" as="geometry">
            <mxRectangle x="604" y="162" width="183" height="52" as="alternateBounds" />
          </mxGeometry>
        </mxCell>
        <mxCell id="eDFqkNTLr4-eCkODvhOK-8" value="" style="text;strokeColor=none;fillColor=#CCFFFF;align=left;verticalAlign=top;spacingLeft=4;spacingRight=4;overflow=hidden;rotatable=0;points=[[0,0.5],[1,0.5]];portConstraint=eastwest;" parent="eDFqkNTLr4-eCkODvhOK-7" vertex="1">
          <mxGeometry y="26" width="183" height="26" as="geometry" />
        </mxCell>
        <mxCell id="rqdoCPFN9nggNmxES_CL-17" value="" style="endArrow=classic;html=1;rounded=0;dashed=1;exitX=0.75;exitY=0;exitDx=0;exitDy=0;entryX=0.5;entryY=1;entryDx=0;entryDy=0;" parent="1" source="Apjs1uX6zSfPLk6eXD6j-5" target="hXy3NdqEf34I_91X7ZeJ-1" edge="1">
          <mxGeometry width="50" height="50" relative="1" as="geometry">
            <mxPoint x="37" y="156" as="sourcePoint" />
            <mxPoint x="158" y="86" as="targetPoint" />
          </mxGeometry>
        </mxCell>
        <mxCell id="rqdoCPFN9nggNmxES_CL-21" value="" style="endArrow=classic;html=1;rounded=0;exitX=0.5;exitY=0;exitDx=0;exitDy=0;entryX=0.5;entryY=1;entryDx=0;entryDy=0;" parent="1" source="Apjs1uX6zSfPLk6eXD6j-5" target="Apjs1uX6zSfPLk6eXD6j-1" edge="1">
          <mxGeometry width="50" height="50" relative="1" as="geometry">
            <mxPoint x="45" y="198" as="sourcePoint" />
            <mxPoint x="165" y="124" as="targetPoint" />
          </mxGeometry>
        </mxCell>
        <mxCell id="hXy3NdqEf34I_91X7ZeJ-1" value="AopInfrastructureBean" style="swimlane;fontStyle=0;childLayout=stackLayout;horizontal=1;startSize=26;fillColor=#CCFFCC;horizontalStack=0;resizeParent=1;resizeParentMax=0;resizeLast=0;collapsible=1;marginBottom=0;direction=east;strokeColor=default;swimlaneLine=1;glass=0;rounded=0;shadow=0;" parent="1" vertex="1" collapsed="1">
          <mxGeometry x="860" y="171" width="159" height="30" as="geometry">
            <mxRectangle x="604" y="162" width="183" height="52" as="alternateBounds" />
          </mxGeometry>
        </mxCell>
        <mxCell id="hXy3NdqEf34I_91X7ZeJ-2" value="" style="text;strokeColor=none;fillColor=#CCFFFF;align=left;verticalAlign=top;spacingLeft=4;spacingRight=4;overflow=hidden;rotatable=0;points=[[0,0.5],[1,0.5]];portConstraint=eastwest;" parent="hXy3NdqEf34I_91X7ZeJ-1" vertex="1">
          <mxGeometry y="26" width="183" height="26" as="geometry" />
        </mxCell>
        <mxCell id="Apjs1uX6zSfPLk6eXD6j-1" value="ProxyConfig" style="swimlane;fontStyle=0;childLayout=stackLayout;horizontal=1;startSize=26;fillColor=#CCFFFF;horizontalStack=0;resizeParent=1;resizeParentMax=0;resizeLast=0;collapsible=1;marginBottom=0;direction=east;strokeColor=default;swimlaneLine=1;glass=0;rounded=0;shadow=0;" parent="1" vertex="1" collapsed="1">
          <mxGeometry x="691.5" y="171" width="125" height="30" as="geometry">
            <mxRectangle x="604" y="162" width="183" height="52" as="alternateBounds" />
          </mxGeometry>
        </mxCell>
        <mxCell id="Apjs1uX6zSfPLk6eXD6j-2" value="" style="text;strokeColor=none;fillColor=#CCFFFF;align=left;verticalAlign=top;spacingLeft=4;spacingRight=4;overflow=hidden;rotatable=0;points=[[0,0.5],[1,0.5]];portConstraint=eastwest;" parent="Apjs1uX6zSfPLk6eXD6j-1" vertex="1">
          <mxGeometry y="26" width="183" height="26" as="geometry" />
        </mxCell>
        <mxCell id="Apjs1uX6zSfPLk6eXD6j-3" value="BeanClassLoaderAware" style="swimlane;fontStyle=0;childLayout=stackLayout;horizontal=1;startSize=26;fillColor=#CCFFCC;horizontalStack=0;resizeParent=1;resizeParentMax=0;resizeLast=0;collapsible=1;marginBottom=0;direction=east;strokeColor=default;swimlaneLine=1;glass=0;rounded=0;shadow=0;" parent="1" vertex="1" collapsed="1">
          <mxGeometry x="346" y="169" width="169" height="30" as="geometry">
            <mxRectangle x="604" y="162" width="183" height="52" as="alternateBounds" />
          </mxGeometry>
        </mxCell>
        <mxCell id="Apjs1uX6zSfPLk6eXD6j-4" value="" style="text;strokeColor=none;fillColor=#CCFFFF;align=left;verticalAlign=top;spacingLeft=4;spacingRight=4;overflow=hidden;rotatable=0;points=[[0,0.5],[1,0.5]];portConstraint=eastwest;" parent="Apjs1uX6zSfPLk6eXD6j-3" vertex="1">
          <mxGeometry y="26" width="183" height="26" as="geometry" />
        </mxCell>
        <mxCell id="Apjs1uX6zSfPLk6eXD6j-5" value="ProxyProcessorSupport" style="swimlane;fontStyle=0;childLayout=stackLayout;horizontal=1;startSize=26;fillColor=#CCFFFF;horizontalStack=0;resizeParent=1;resizeParentMax=0;resizeLast=0;collapsible=1;marginBottom=0;direction=east;strokeColor=default;swimlaneLine=1;glass=0;rounded=0;shadow=0;" parent="1" vertex="1" collapsed="1">
          <mxGeometry x="669" y="273" width="170" height="30" as="geometry">
            <mxRectangle x="604" y="162" width="183" height="52" as="alternateBounds" />
          </mxGeometry>
        </mxCell>
        <mxCell id="Apjs1uX6zSfPLk6eXD6j-6" value="" style="text;strokeColor=none;fillColor=#CCFFFF;align=left;verticalAlign=top;spacingLeft=4;spacingRight=4;overflow=hidden;rotatable=0;points=[[0,0.5],[1,0.5]];portConstraint=eastwest;" parent="Apjs1uX6zSfPLk6eXD6j-5" vertex="1">
          <mxGeometry y="26" width="183" height="26" as="geometry" />
        </mxCell>
        <mxCell id="Apjs1uX6zSfPLk6eXD6j-7" value="Ordered" style="swimlane;fontStyle=0;childLayout=stackLayout;horizontal=1;startSize=26;fillColor=#CCFFCC;horizontalStack=0;resizeParent=1;resizeParentMax=0;resizeLast=0;collapsible=1;marginBottom=0;direction=east;strokeColor=default;swimlaneLine=1;glass=0;rounded=0;shadow=0;" parent="1" vertex="1" collapsed="1">
          <mxGeometry x="558" y="171" width="90" height="30" as="geometry">
            <mxRectangle x="604" y="162" width="183" height="52" as="alternateBounds" />
          </mxGeometry>
        </mxCell>
        <mxCell id="Apjs1uX6zSfPLk6eXD6j-8" value="" style="text;strokeColor=none;fillColor=#CCFFFF;align=left;verticalAlign=top;spacingLeft=4;spacingRight=4;overflow=hidden;rotatable=0;points=[[0,0.5],[1,0.5]];portConstraint=eastwest;" parent="Apjs1uX6zSfPLk6eXD6j-7" vertex="1">
          <mxGeometry y="26" width="183" height="26" as="geometry" />
        </mxCell>
        <mxCell id="Apjs1uX6zSfPLk6eXD6j-9" value="AspectJAwareAdvisorAutoProxyCreator" style="swimlane;fontStyle=0;childLayout=stackLayout;horizontal=1;startSize=26;fillColor=#CCFFFF;horizontalStack=0;resizeParent=1;resizeParentMax=0;resizeLast=0;collapsible=1;marginBottom=0;direction=east;strokeColor=default;swimlaneLine=1;glass=0;rounded=0;shadow=0;" parent="1" vertex="1" collapsed="1">
          <mxGeometry x="625.5" y="551" width="257" height="30" as="geometry">
            <mxRectangle x="604" y="162" width="183" height="52" as="alternateBounds" />
          </mxGeometry>
        </mxCell>
        <mxCell id="Apjs1uX6zSfPLk6eXD6j-10" value="" style="text;strokeColor=none;fillColor=#CCFFFF;align=left;verticalAlign=top;spacingLeft=4;spacingRight=4;overflow=hidden;rotatable=0;points=[[0,0.5],[1,0.5]];portConstraint=eastwest;" parent="Apjs1uX6zSfPLk6eXD6j-9" vertex="1">
          <mxGeometry y="26" width="183" height="26" as="geometry" />
        </mxCell>
        <mxCell id="Apjs1uX6zSfPLk6eXD6j-11" value="SmartInstantiationAwareBeanPostProcessor" style="swimlane;fontStyle=0;childLayout=stackLayout;horizontal=1;startSize=26;fillColor=#CCFFCC;horizontalStack=0;resizeParent=1;resizeParentMax=0;resizeLast=0;collapsible=1;marginBottom=0;direction=east;strokeColor=default;swimlaneLine=1;glass=0;rounded=0;shadow=0;" parent="1" vertex="1" collapsed="1">
          <mxGeometry x="316" y="273" width="285" height="30" as="geometry">
            <mxRectangle x="604" y="162" width="183" height="52" as="alternateBounds" />
          </mxGeometry>
        </mxCell>
        <mxCell id="Apjs1uX6zSfPLk6eXD6j-12" value="" style="text;strokeColor=none;fillColor=#CCFFFF;align=left;verticalAlign=top;spacingLeft=4;spacingRight=4;overflow=hidden;rotatable=0;points=[[0,0.5],[1,0.5]];portConstraint=eastwest;" parent="Apjs1uX6zSfPLk6eXD6j-11" vertex="1">
          <mxGeometry y="26" width="183" height="26" as="geometry" />
        </mxCell>
        <mxCell id="Apjs1uX6zSfPLk6eXD6j-17" value="AbstractAdvisorAutoProxyCreator" style="swimlane;fontStyle=0;childLayout=stackLayout;horizontal=1;startSize=26;fillColor=#CCFFFF;horizontalStack=0;resizeParent=1;resizeParentMax=0;resizeLast=0;collapsible=1;marginBottom=0;direction=east;strokeColor=default;swimlaneLine=1;glass=0;rounded=0;shadow=0;" parent="1" vertex="1" collapsed="1">
          <mxGeometry x="644.5" y="456" width="219" height="30" as="geometry">
            <mxRectangle x="604" y="162" width="183" height="52" as="alternateBounds" />
          </mxGeometry>
        </mxCell>
        <mxCell id="Apjs1uX6zSfPLk6eXD6j-18" value="" style="text;strokeColor=none;fillColor=#CCFFFF;align=left;verticalAlign=top;spacingLeft=4;spacingRight=4;overflow=hidden;rotatable=0;points=[[0,0.5],[1,0.5]];portConstraint=eastwest;" parent="Apjs1uX6zSfPLk6eXD6j-17" vertex="1">
          <mxGeometry y="26" width="183" height="26" as="geometry" />
        </mxCell>
        <mxCell id="Apjs1uX6zSfPLk6eXD6j-19" value="BeanFactoryAware" style="swimlane;fontStyle=0;childLayout=stackLayout;horizontal=1;startSize=26;fillColor=#CCFFCC;horizontalStack=0;resizeParent=1;resizeParentMax=0;resizeLast=0;collapsible=1;marginBottom=0;direction=east;strokeColor=default;swimlaneLine=1;glass=0;rounded=0;shadow=0;" parent="1" vertex="1" collapsed="1">
          <mxGeometry x="900" y="273" width="170" height="30" as="geometry">
            <mxRectangle x="604" y="162" width="183" height="52" as="alternateBounds" />
          </mxGeometry>
        </mxCell>
        <mxCell id="Apjs1uX6zSfPLk6eXD6j-20" value="" style="text;strokeColor=none;fillColor=#CCFFFF;align=left;verticalAlign=top;spacingLeft=4;spacingRight=4;overflow=hidden;rotatable=0;points=[[0,0.5],[1,0.5]];portConstraint=eastwest;" parent="Apjs1uX6zSfPLk6eXD6j-19" vertex="1">
          <mxGeometry y="26" width="183" height="26" as="geometry" />
        </mxCell>
        <mxCell id="Apjs1uX6zSfPLk6eXD6j-26" value="" style="endArrow=classic;html=1;rounded=0;exitX=0.5;exitY=0;exitDx=0;exitDy=0;entryX=0.5;entryY=1;entryDx=0;entryDy=0;" parent="1" source="eDFqkNTLr4-eCkODvhOK-7" target="Apjs1uX6zSfPLk6eXD6j-5" edge="1">
          <mxGeometry width="50" height="50" relative="1" as="geometry">
            <mxPoint x="55" y="208" as="sourcePoint" />
            <mxPoint x="175" y="134" as="targetPoint" />
          </mxGeometry>
        </mxCell>
        <mxCell id="Apjs1uX6zSfPLk6eXD6j-27" value="" style="endArrow=classic;html=1;rounded=0;exitX=0.5;exitY=0;exitDx=0;exitDy=0;entryX=0.5;entryY=1;entryDx=0;entryDy=0;" parent="1" source="Apjs1uX6zSfPLk6eXD6j-17" target="eDFqkNTLr4-eCkODvhOK-7" edge="1">
          <mxGeometry width="50" height="50" relative="1" as="geometry">
            <mxPoint x="65" y="218" as="sourcePoint" />
            <mxPoint x="185" y="144" as="targetPoint" />
          </mxGeometry>
        </mxCell>
        <mxCell id="Apjs1uX6zSfPLk6eXD6j-28" value="" style="endArrow=classic;html=1;rounded=0;exitX=0.5;exitY=0;exitDx=0;exitDy=0;entryX=0.5;entryY=1;entryDx=0;entryDy=0;" parent="1" source="Apjs1uX6zSfPLk6eXD6j-9" target="Apjs1uX6zSfPLk6eXD6j-17" edge="1">
          <mxGeometry width="50" height="50" relative="1" as="geometry">
            <mxPoint x="75" y="228" as="sourcePoint" />
            <mxPoint x="195" y="154" as="targetPoint" />
          </mxGeometry>
        </mxCell>
        <mxCell id="Apjs1uX6zSfPLk6eXD6j-29" value="" style="endArrow=classic;html=1;rounded=0;dashed=1;exitX=0;exitY=0;exitDx=0;exitDy=0;entryX=0.5;entryY=1;entryDx=0;entryDy=0;" parent="1" source="Apjs1uX6zSfPLk6eXD6j-5" target="Apjs1uX6zSfPLk6eXD6j-3" edge="1">
          <mxGeometry width="50" height="50" relative="1" as="geometry">
            <mxPoint x="47" y="166" as="sourcePoint" />
            <mxPoint x="168" y="96" as="targetPoint" />
          </mxGeometry>
        </mxCell>
        <mxCell id="Apjs1uX6zSfPLk6eXD6j-30" value="" style="endArrow=classic;html=1;rounded=0;dashed=1;exitX=0.25;exitY=0;exitDx=0;exitDy=0;entryX=0.5;entryY=1;entryDx=0;entryDy=0;" parent="1" source="Apjs1uX6zSfPLk6eXD6j-5" target="Apjs1uX6zSfPLk6eXD6j-7" edge="1">
          <mxGeometry width="50" height="50" relative="1" as="geometry">
            <mxPoint x="57" y="176" as="sourcePoint" />
            <mxPoint x="178" y="106" as="targetPoint" />
          </mxGeometry>
        </mxCell>
        <mxCell id="Apjs1uX6zSfPLk6eXD6j-31" value="" style="endArrow=classic;html=1;rounded=0;dashed=1;exitX=0.75;exitY=0;exitDx=0;exitDy=0;entryX=0.5;entryY=1;entryDx=0;entryDy=0;" parent="1" source="eDFqkNTLr4-eCkODvhOK-7" target="Apjs1uX6zSfPLk6eXD6j-19" edge="1">
          <mxGeometry width="50" height="50" relative="1" as="geometry">
            <mxPoint x="67" y="186" as="sourcePoint" />
            <mxPoint x="188" y="116" as="targetPoint" />
          </mxGeometry>
        </mxCell>
        <mxCell id="Apjs1uX6zSfPLk6eXD6j-32" value="" style="endArrow=classic;html=1;rounded=0;dashed=1;exitX=0.25;exitY=0;exitDx=0;exitDy=0;entryX=0.5;entryY=1;entryDx=0;entryDy=0;" parent="1" source="eDFqkNTLr4-eCkODvhOK-7" target="Apjs1uX6zSfPLk6eXD6j-11" edge="1">
          <mxGeometry width="50" height="50" relative="1" as="geometry">
            <mxPoint x="77" y="196" as="sourcePoint" />
            <mxPoint x="198" y="126" as="targetPoint" />
          </mxGeometry>
        </mxCell>
      </root>
    </mxGraphModel>
  </diagram>
</mxfile>
